REM DIRINDEX 1\2\3,1\2\4,1\2\5,1\2\6
REM DIRNAME folder01,folder02,folder03,folder04,folder05,folder06
TITLE ""
FILE "052 052.mp3" MP3
  TRACK 01 AUDIO
    TITLE "0:"
    INDEX 01 00:00:00
  TRACK 02 AUDIO
    TITLE "3:cjc157_1977"
    INDEX 01 00:00:13
  TRACK 03 AUDIO
    TITLE "0:"
    INDEX 01 00:01:34
  TRACK 04 AUDIO
    TITLE "4:cjc157_1978"
    INDEX 01 00:02:06
  TRACK 05 AUDIO
    TITLE "0:"
    INDEX 01 00:03:17
  TRACK 06 AUDIO
    TITLE "5:cjc157_1979"
    INDEX 01 00:03:63
  TRACK 07 AUDIO
    TITLE "0:"
    INDEX 01 00:05:42
  TRACK 08 AUDIO
    TITLE "5:cjc157_1980"
    INDEX 01 00:06:12
  TRACK 09 AUDIO
    TITLE "0:"
    INDEX 01 00:09:51
  TRACK 10 AUDIO
    TITLE "3:cjc157_1981"
    INDEX 01 00:10:14
  TRACK 11 AUDIO
    TITLE "0:"
    INDEX 01 00:11:27
  TRACK 12 AUDIO
    TITLE "4:cjc157_1982"
    INDEX 01 00:11:72
  TRACK 13 AUDIO
    TITLE "0:"
    INDEX 01 00:13:00
  TRACK 14 AUDIO
    TITLE "5:cjc157_1983"
    INDEX 01 00:13:41
  TRACK 15 AUDIO
    TITLE "0:"
    INDEX 01 00:15:66
  TRACK 16 AUDIO
    TITLE "3:cjc157_1984"
    INDEX 01 00:16:38
  TRACK 17 AUDIO
    TITLE "0:"
    INDEX 01 00:17:53
  TRACK 18 AUDIO
    TITLE "4:cjc157_1985"
    INDEX 01 00:18:23
  TRACK 19 AUDIO
    TITLE "0:"
    INDEX 01 00:19:28
  TRACK 20 AUDIO
    TITLE "5:cjc157_1986"
    INDEX 01 00:19:73
  TRACK 21 AUDIO
    TITLE "0:"
    INDEX 01 00:22:29
  TRACK 22 AUDIO
    TITLE "5:cjc157_1987"
    INDEX 01 00:22:72
  TRACK 23 AUDIO
    TITLE "0:"
    INDEX 01 00:26:03
  TRACK 24 AUDIO
    TITLE "3:cjc157_1988"
    INDEX 01 00:26:46
  TRACK 25 AUDIO
    TITLE "0:"
    INDEX 01 00:27:67
  TRACK 26 AUDIO
    TITLE "4:cjc157_1989"
    INDEX 01 00:28:35
  TRACK 27 AUDIO
    TITLE "0:"
    INDEX 01 00:29:50
  TRACK 28 AUDIO
    TITLE "5:cjc157_1990"
    INDEX 01 00:30:20
  TRACK 29 AUDIO
    TITLE "0:"
    INDEX 01 00:32:60
  TRACK 30 AUDIO
    TITLE "3:cjc157_1991"
    INDEX 01 00:33:26
  TRACK 31 AUDIO
    TITLE "0:"
    INDEX 01 00:34:36
  TRACK 32 AUDIO
    TITLE "4:cjc157_1992"
    INDEX 01 00:35:08
  TRACK 33 AUDIO
    TITLE "0:"
    INDEX 01 00:36:03
  TRACK 34 AUDIO
    TITLE "5:cjc157_1993"
    INDEX 01 00:36:62
  TRACK 35 AUDIO
    TITLE "0:"
    INDEX 01 00:38:45
  TRACK 36 AUDIO
    TITLE "3:cjc157_1994"
    INDEX 01 00:39:15
  TRACK 37 AUDIO
    TITLE "0:"
    INDEX 01 00:41:26
  TRACK 38 AUDIO
    TITLE "4:cjc157_1995"
    INDEX 01 00:41:71
  TRACK 39 AUDIO
    TITLE "0:"
    INDEX 01 00:42:74
  TRACK 40 AUDIO
    TITLE "5:cjc157_1996"
    INDEX 01 00:43:44
  TRACK 41 AUDIO
    TITLE "0:"
    INDEX 01 00:46:25
  TRACK 42 AUDIO
    TITLE "5:cjc157_1997"
    INDEX 01 00:46:68
  TRACK 43 AUDIO
    TITLE "0:"
    INDEX 01 00:49:63
  TRACK 44 AUDIO
    TITLE "3:cjc157_1998"
    INDEX 01 00:50:31
  TRACK 45 AUDIO
    TITLE "0:"
    INDEX 01 00:51:69
  TRACK 46 AUDIO
    TITLE "4:cjc157_1999"
    INDEX 01 00:52:39
  TRACK 47 AUDIO
    TITLE "0:"
    INDEX 01 00:53:43
  TRACK 48 AUDIO
    TITLE "5:cjc157_2000"
    INDEX 01 00:54:15
  TRACK 49 AUDIO
    TITLE "0:"
    INDEX 01 00:56:71
  TRACK 50 AUDIO
    TITLE "3:cjc157_2001"
    INDEX 01 00:57:41
  TRACK 51 AUDIO
    TITLE "0:"
    INDEX 01 00:58:66
  TRACK 52 AUDIO
    TITLE "4:cjc157_2002"
    INDEX 01 00:59:34
  TRACK 53 AUDIO
    TITLE "0:"
    INDEX 01 01:00:47
  TRACK 54 AUDIO
    TITLE "5:cjc157_2003"
    INDEX 01 01:01:13
  TRACK 55 AUDIO
    TITLE "0:"
    INDEX 01 01:04:37
  TRACK 56 AUDIO
    TITLE "3:cjc157_2004"
    INDEX 01 01:05:05
  TRACK 57 AUDIO
    TITLE "0:"
    INDEX 01 01:06:49
  TRACK 58 AUDIO
    TITLE "4:cjc157_2005"
    INDEX 01 01:07:17
  TRACK 59 AUDIO
    TITLE "0:"
    INDEX 01 01:08:38
  TRACK 60 AUDIO
    TITLE "5:cjc157_2006"
    INDEX 01 01:09:10
  TRACK 61 AUDIO
    TITLE "0:"
    INDEX 01 01:12:71
  TRACK 62 AUDIO
    TITLE "3:cjc157_2007"
    INDEX 01 01:13:44
  TRACK 63 AUDIO
    TITLE "0:"
    INDEX 01 01:15:17
  TRACK 64 AUDIO
    TITLE "4:cjc157_2008"
    INDEX 01 01:15:64
  TRACK 65 AUDIO
    TITLE "0:"
    INDEX 01 01:17:08
  TRACK 66 AUDIO
    TITLE "5:cjc157_2009"
    INDEX 01 01:17:55
  TRACK 67 AUDIO
    TITLE "0:"
    INDEX 01 01:21:41
  TRACK 68 AUDIO
    TITLE "5:cjc157_2010"
    INDEX 01 01:22:11
  TRACK 69 AUDIO
    TITLE "0:"
    INDEX 01 01:25:41
